<mxfile host="app.diagrams.net" modified="2022-04-08T11:27:09.098Z" agent="5.0 (Windows NT 10.0; Win64; x64) AppleWebKit/537.36 (KHTML, like Gecko) Chrome/100.0.4896.60 Safari/537.36" etag="dz0VOkTxFDPJ6svx-viP" version="17.4.1" type="github">
  <diagram id="zEENPlqJxlJHR2_Fcn5l" name="Page-1">
    <mxGraphModel dx="1225" dy="262" grid="1" gridSize="10" guides="1" tooltips="1" connect="1" arrows="1" fold="1" page="1" pageScale="1" pageWidth="827" pageHeight="1169" math="0" shadow="0">
      <root>
        <mxCell id="0" />
        <mxCell id="1" parent="0" />
        <mxCell id="j4PT1M_2d39HoLKXM4Zw-3" value="Student" style="swimlane;childLayout=stackLayout;horizontal=1;startSize=30;horizontalStack=0;rounded=1;fontSize=14;fontStyle=0;strokeWidth=2;resizeParent=0;resizeLast=1;shadow=0;dashed=0;align=center;" parent="1" vertex="1">
          <mxGeometry x="-10" y="420" width="160" height="120" as="geometry" />
        </mxCell>
        <mxCell id="j4PT1M_2d39HoLKXM4Zw-4" value="name&#xa;emali&#xa;dateRegistered" style="align=left;strokeColor=none;fillColor=none;spacingLeft=4;fontSize=12;verticalAlign=top;resizable=0;rotatable=0;part=1;" parent="j4PT1M_2d39HoLKXM4Zw-3" vertex="1">
          <mxGeometry y="30" width="160" height="90" as="geometry" />
        </mxCell>
        <mxCell id="2lRhFeLl-KUkfIFOSH_M-1" value="Course" style="swimlane;childLayout=stackLayout;horizontal=1;startSize=30;horizontalStack=0;rounded=1;fontSize=14;fontStyle=0;strokeWidth=2;resizeParent=0;resizeLast=1;shadow=0;dashed=0;align=center;" vertex="1" parent="1">
          <mxGeometry x="190" y="420" width="160" height="120" as="geometry" />
        </mxCell>
        <mxCell id="2lRhFeLl-KUkfIFOSH_M-2" value="title&#xa;price&#xa;instructor&#xa;tags" style="align=left;strokeColor=none;fillColor=none;spacingLeft=4;fontSize=12;verticalAlign=top;resizable=0;rotatable=0;part=1;" vertex="1" parent="2lRhFeLl-KUkfIFOSH_M-1">
          <mxGeometry y="30" width="160" height="90" as="geometry" />
        </mxCell>
      </root>
    </mxGraphModel>
  </diagram>
</mxfile>
